<svg xmlns="http://www.w3.org/2000/svg" viewBox="0 0 64 64">
  <defs>
    <radialGradient id="gold" cx="30%" cy="24%" r="78%">
      <stop offset="0%" stop-color="#fff4c9"/>
      <stop offset="55%" stop-color="#d8b56d"/>
      <stop offset="100%" stop-color="#9c6c27"/>
    </radialGradient>
    <linearGradient id="body" x1="6" y1="13" x2="58" y2="48" gradientUnits="userSpaceOnUse">
      <stop offset="0" stop-color="#070707"/>
      <stop offset="0.48" stop-color="#1d1b18"/>
      <stop offset="1" stop-color="#050505"/>
    </linearGradient>
    <linearGradient id="windows" x1="16" y1="19" x2="49" y2="31" gradientUnits="userSpaceOnUse">
      <stop offset="0" stop-color="#fff7d8"/>
      <stop offset="0.55" stop-color="#d8b56d"/>
      <stop offset="1" stop-color="#7a541f"/>
    </linearGradient>
    <radialGradient id="glow" cx="49" cy="37" r="19" gradientUnits="userSpaceOnUse">
      <stop offset="0" stop-color="#fff6cf" stop-opacity="0.92"/>
      <stop offset="0.38" stop-color="#d8b56d" stop-opacity="0.42"/>
      <stop offset="1" stop-color="#d8b56d" stop-opacity="0"/>
    </radialGradient>
    <clipPath id="clip">
      <circle cx="32" cy="32" r="25"/>
    </clipPath>
  </defs>
  <rect width="64" height="64" rx="18" fill="#050506"/>
  <circle cx="32" cy="32" r="25" fill="url(#gold)"/>
  <g clip-path="url(#clip)">
    <path d="M47 28.5c5.5 1.4 10 4.6 13.4 8.8" fill="none" stroke="#fff0b8" stroke-opacity="0.36" stroke-width="2.6" stroke-linecap="round"/>
    <path d="M48 35.8h13.5" fill="none" stroke="#fff4cf" stroke-opacity="0.62" stroke-width="2.8" stroke-linecap="round"/>
    <circle cx="49.6" cy="36.4" r="15.5" fill="url(#glow)"/>
    <path d="M8.7 24.6c1.4-5.8 4.9-9.5 10.4-10.7h20.1c6.5 0 10.6 3.1 12.5 9.4l2.7 9.1c.8 2.8.2 5.2-1.8 7.2-1.4 1.4-3.2 2.1-5.2 2.1H13.8c-3.7 0-6.6-2.8-6.6-6.3v-6.8c0-1.4.5-2.8 1.5-4Z" fill="url(#body)"/>
    <path d="M12.7 24.8c1.2-4.1 3.4-6.1 6.8-6.1h17.9c4.4 0 7.2 2 8.5 6.1l1.5 4.7H11.3l1.4-4.7Z" fill="url(#windows)"/>
    <path d="M25.8 18.7v10.8M36.8 18.9v10.4M16.3 29.5h30.9" fill="none" stroke="#17120a" stroke-opacity="0.42" stroke-width="1.6" stroke-linecap="round"/>
    <path d="M9.4 34.1h34.5c3.8 0 6.8 1.1 8.8 3.4-.8 2.6-2.8 4.2-5.4 4.2H13.8c-2.4 0-4.4-1.2-5.6-3.1-.8-1.3-.4-3 .9-3.8l.3-.7Z" fill="#070707"/>
    <path d="M13.2 34.8h22.2" fill="none" stroke="#d8b56d" stroke-opacity="0.55" stroke-width="1.8" stroke-linecap="round"/>
    <path d="M43.7 34.7h6.4c1.6 0 2.9 1.2 2.9 2.7h-6.8c-1.5 0-2.6-1.2-2.5-2.7Z" fill="#fff3c5"/>
    <circle cx="17.4" cy="41" r="4.4" fill="#0a0a0a" stroke="#d8b56d" stroke-opacity="0.62" stroke-width="1.4"/>
    <circle cx="43.1" cy="41" r="4.4" fill="#0a0a0a" stroke="#d8b56d" stroke-opacity="0.62" stroke-width="1.4"/>
  </g>
</svg>
