<svg xmlns="http://www.w3.org/2000/svg" viewBox="0 0 64 64">
  <defs>
    <radialGradient id="gold" cx="30%" cy="24%" r="78%">
      <stop offset="0%" stop-color="#fff4c9"/>
      <stop offset="55%" stop-color="#d8b56d"/>
      <stop offset="100%" stop-color="#9c6c27"/>
    </radialGradient>
    <radialGradient id="glow" cx="50%" cy="48%" r="44%">
      <stop offset="0" stop-color="#fff0b8" stop-opacity="0.32"/>
      <stop offset="0.52" stop-color="#d8b56d" stop-opacity="0.12"/>
      <stop offset="1" stop-color="#d8b56d" stop-opacity="0"/>
    </radialGradient>
  </defs>
  <rect width="64" height="64" rx="18" fill="#050506"/>
  <circle cx="32" cy="32" r="25" fill="url(#gold)"/>
  <circle cx="32" cy="32" r="22" fill="url(#glow)"/>
  <circle cx="32" cy="32" r="19" fill="none" stroke="#11100d" stroke-width="4.4"/>
  <circle cx="32" cy="32" r="12" fill="none" stroke="#11100d" stroke-opacity="0.18" stroke-width="2"/>
  <path d="M32 14.5l6 17.5 17.5 6-17.5 6-6 17.5-6-17.5-17.5-6 17.5-6 6-17.5Z" fill="#11100d"/>
  <path d="M32 22.5l3.1 9.5 9.4 3.1-9.4 3.2-3.1 9.2-3.1-9.2-9.4-3.2 9.4-3.1 3.1-9.5Z" fill="#d8b56d" opacity="0.5"/>
  <circle cx="32" cy="32" r="3.2" fill="#fff0b8" opacity="0.68"/>
</svg>
